<svg width="9" height="5" viewBox="0 0 9 5" fill="none" xmlns="http://www.w3.org/2000/svg">
<path d="M2.80784 4.92089H6.26938C7.60554 4.92089 8.69246 3.90388 8.69246 2.65368C8.69246 1.40348 7.60554 0.386475 6.26938 0.386475H2.80784C1.47169 0.386475 0.384766 1.40348 0.384766 2.65368C0.384766 3.90388 1.47169 4.92089 2.80784 4.92089ZM7.30784 2.65368C7.30784 3.18939 6.84192 3.62534 6.26938 3.62534H5.23092V1.68202H6.26938C6.84192 1.68202 7.30784 2.11797 7.30784 2.65368ZM2.80784 1.68202H3.8463V3.62534H2.80784C2.2353 3.62534 1.76938 3.18939 1.76938 2.65368C1.76938 2.11797 2.2353 1.68202 2.80784 1.68202Z" fill="#2B7FFF"/>
</svg>
